<?xml version="1.0" standalone="no"?>
<!DOCTYPE svg PUBLIC "-//W3C//DTD SVG 20010904//EN"
 "http://www.w3.org/TR/2001/REC-SVG-20010904/DTD/svg10.dtd">
<svg version="1.0" xmlns="http://www.w3.org/2000/svg"
 width="500.000000pt" height="500.000000pt" viewBox="0 0 500.000000 500.000000"
 preserveAspectRatio="xMidYMid meet">

<g transform="translate(0.000000,500.000000) scale(0.100000,-0.100000)"
fill="#000000" stroke="none">
<path d="M2459 4430 c-19 -3 -58 -19 -85 -35 -99 -57 -126 -67 -187 -72 -43
-4 -82 0 -119 11 -106 31 -187 16 -246 -43 -20 -21 -56 -59 -79 -83 -57 -61
-118 -88 -224 -98 -141 -13 -195 -52 -248 -180 -47 -112 -98 -162 -210 -205
-115 -44 -171 -124 -171 -243 0 -94 -32 -157 -129 -252 -112 -110 -133 -173
-96 -294 30 -99 17 -182 -47 -289 -67 -112 -68 -197 -3 -292 63 -91 79 -186
50 -295 -34 -126 -17 -180 91 -284 97 -92 122 -141 134 -260 9 -98 19 -123 65
-175 26 -28 57 -48 108 -67 96 -37 173 -112 208 -202 28 -75 74 -133 124 -157
20 -9 76 -20 124 -25 107 -10 165 -36 223 -98 89 -96 116 -118 155 -130 54
-16 99 -15 159 3 102 31 206 14 297 -49 94 -65 198 -65 292 -1 91 63 197 81
299 50 110 -33 207 -3 272 84 66 88 163 141 260 141 126 0 206 58 257 187 37
94 105 159 207 198 114 43 170 124 170 243 0 98 25 149 117 239 119 117 143
183 108 299 -19 62 -19 150 -1 202 8 23 33 71 55 108 37 61 41 74 41 134 0 60
-4 73 -42 135 -69 115 -83 194 -53 305 33 124 10 195 -96 289 -90 81 -118 136
-129 250 -10 104 -19 128 -65 180 -25 28 -57 48 -105 66 -113 43 -164 92 -210
203 -56 130 -108 169 -249 182 -106 10 -167 37 -224 98 -23 24 -59 62 -79 83
-59 59 -140 74 -245 43 -35 -10 -79 -15 -117 -12 -60 4 -78 10 -196 75 -61 34
-106 43 -161 33z m259 -211 c46 -5 126 -21 179 -35 664 -172 1149 -673 1295
-1337 20 -90 23 -130 23 -347 0 -217 -3 -257 -23 -347 -50 -227 -132 -422
-257 -608 -216 -322 -520 -557 -875 -676 -207 -69 -279 -81 -520 -86 -189 -4
-230 -2 -334 16 -702 126 -1244 651 -1398 1354 -20 90 -23 131 -23 347 0 220
2 255 23 349 78 347 234 633 481 880 185 185 429 332 697 420 251 82 462 102
732 70z"/>
<path d="M2410 4136 c-3 -2 -4 -59 -2 -125 l3 -121 30 0 30 0 -3 123 -3 122
-25 3 c-14 2 -28 1 -30 -2z"/>
<path d="M2625 4116 c-13 -55 -35 -183 -35 -203 0 -18 6 -23 24 -23 25 0 26 1
42 95 l7 40 22 -60 c14 -36 30 -61 39 -63 10 -2 34 15 57 40 l39 43 -6 -49
c-11 -81 -11 -81 19 -84 15 -2 27 1 27 6 0 5 9 58 20 117 10 60 18 110 17 111
-1 1 -12 4 -23 8 -17 5 -31 -5 -75 -58 -30 -36 -56 -65 -59 -65 -3 -1 -18 35
-34 78 -24 64 -34 80 -53 84 -18 3 -25 -1 -28 -17z"/>
<path d="M2219 4113 c-9 -2 -22 -22 -29 -43 -7 -22 -17 -40 -21 -40 -4 0 -21
11 -37 25 -31 26 -57 31 -80 16 -10 -6 0 -19 37 -50 28 -24 51 -49 51 -56 0
-7 -11 -38 -25 -70 -14 -32 -24 -59 -22 -61 1 -2 16 0 31 4 21 6 33 18 44 47
8 22 17 42 18 44 2 2 21 -11 43 -28 30 -24 46 -30 65 -25 14 3 26 9 26 14 0 4
-22 26 -50 49 -27 23 -50 48 -50 55 0 8 11 39 25 70 26 59 24 63 -26 49z"/>
<path d="M1832 3985 c-59 -28 -92 -50 -92 -60 0 -23 24 -28 57 -11 l30 15 43
-89 c41 -84 44 -88 67 -77 12 5 23 14 23 19 0 5 -18 44 -40 88 -22 44 -40 81
-40 84 0 2 14 9 30 16 28 12 41 42 22 54 -4 2 -49 -15 -100 -39z"/>
<path d="M3032 3987 c-34 -36 -28 -65 24 -114 31 -28 44 -48 40 -58 -8 -22
-42 -11 -82 26 -29 28 -31 29 -47 11 -16 -17 -16 -20 5 -41 30 -33 104 -64
131 -55 71 21 75 70 11 135 -49 50 -52 76 -5 64 14 -4 36 -16 49 -28 21 -19
24 -20 39 -4 21 20 7 40 -48 68 -51 26 -91 24 -117 -4z"/>
<path d="M3335 3832 c-84 -20 -121 -120 -72 -193 50 -76 141 -87 204 -24 73
73 25 195 -87 217 -14 3 -34 3 -45 0z m70 -58 c8 -4 22 -19 30 -35 37 -70 -53
-143 -113 -91 -35 29 -37 64 -7 100 26 31 54 39 90 26z"/>
<path d="M1527 3782 c-10 -10 -17 -21 -17 -24 0 -7 137 -178 144 -181 9 -3
135 97 136 109 0 5 -5 15 -12 22 -9 9 -23 3 -60 -25 -27 -19 -50 -34 -52 -32
-25 33 -119 149 -121 149 -1 0 -9 -8 -18 -18z"/>
<path d="M1326 3581 l-55 -69 94 -77 95 -76 28 32 c86 103 92 113 76 129 -14
13 -20 10 -59 -33 -38 -44 -45 -48 -65 -37 -23 13 -25 8 28 78 22 30 22 31 3
41 -17 9 -25 5 -54 -31 -30 -36 -37 -40 -51 -29 -22 18 -21 22 20 69 30 35 34
45 24 57 -7 8 -16 15 -20 15 -4 0 -33 -31 -64 -69z"/>
<path d="M2470 3620 c-14 -4 -45 -19 -70 -34 -49 -28 -108 -34 -173 -15 -53
14 -93 -1 -148 -57 -52 -54 -89 -72 -161 -79 -70 -7 -96 -28 -138 -111 -33
-64 -40 -71 -104 -105 -84 -45 -103 -68 -111 -139 -10 -82 -12 -88 -76 -156
-62 -67 -78 -109 -60 -157 20 -52 13 -110 -20 -173 -41 -76 -41 -116 0 -187
34 -59 40 -111 20 -180 -8 -31 -7 -48 7 -87 14 -40 15 -54 6 -75 -7 -14 -12
-46 -12 -70 0 -36 6 -52 32 -81 18 -20 41 -40 52 -44 14 -6 -3 -9 -51 -9 -42
-1 -73 -5 -73 -11 0 -6 31 -10 74 -10 l73 0 6 -41 c3 -22 7 -42 9 -45 4 -4
151 -46 200 -58 19 -4 30 -16 38 -41 18 -53 58 -81 129 -88 76 -8 108 -24 162
-82 51 -54 93 -70 146 -56 69 20 122 14 182 -20 71 -41 111 -41 182 0 60 34
113 40 182 20 52 -14 98 3 139 51 46 53 94 78 163 86 79 9 101 25 137 101 32
68 67 101 136 128 23 10 51 30 62 45 18 26 26 28 114 35 l94 7 28 64 27 64
-23 25 c-13 14 -45 33 -71 42 l-47 17 21 28 c22 29 24 53 12 160 -7 63 -6 70
24 122 41 73 41 119 1 189 -32 57 -38 113 -20 177 15 51 -3 103 -49 142 -51
44 -77 91 -85 157 -11 83 -28 107 -105 146 -73 36 -100 66 -120 127 -13 39
-61 87 -89 89 -107 7 -139 20 -197 79 -59 60 -98 76 -152 61 -67 -19 -122 -13
-177 17 -61 34 -92 42 -126 32z m84 -115 c59 -35 126 -45 203 -33 l63 11 42
-46 c49 -52 111 -82 190 -92 l55 -7 28 -59 c35 -72 74 -110 146 -144 l57 -25
7 -58 c10 -80 38 -139 92 -189 l46 -43 -11 -68 c-13 -79 -4 -133 35 -202 l26
-47 -31 -63 c-18 -35 -32 -73 -32 -84 0 -33 -12 -41 -60 -42 -25 0 -52 -3 -61
-7 -11 -6 -19 0 -27 18 -21 46 -92 112 -143 135 -95 40 -220 25 -322 -40 l-47
-29 -27 56 c-14 32 -44 76 -65 99 l-39 43 42 11 c81 22 116 88 140 263 10 72
16 90 33 99 28 15 36 29 30 53 -4 16 2 24 27 35 47 21 74 62 60 88 -9 18 -8
23 9 32 24 13 27 58 5 66 -8 4 -15 14 -15 25 0 51 -116 68 -168 24 -40 -33
-49 -32 -57 12 -13 71 -99 122 -125 74 -16 -30 -12 -57 14 -109 16 -32 21 -53
15 -67 -15 -38 -10 -92 12 -119 20 -25 20 -28 4 -46 -23 -26 -12 -55 32 -75
l36 -17 -7 -67 c-8 -82 -41 -151 -80 -170 -17 -8 -60 -16 -98 -19 -54 -4 -80
0 -130 18 -85 31 -116 51 -233 145 -180 146 -276 205 -336 205 -27 0 -119 -53
-119 -69 0 -5 -20 -28 -45 -52 -91 -87 -107 -214 -45 -364 13 -34 14 -45 4
-75 -7 -19 -13 -49 -13 -65 -1 -27 -4 -30 -32 -30 -44 0 -56 -23 -35 -66 l17
-33 -51 -51 -51 -50 8 40 c14 77 7 134 -28 202 l-33 65 27 47 c39 70 48 124
35 203 l-11 68 46 42 c52 49 82 111 92 192 7 55 7 56 59 79 74 34 119 78 150
146 l26 59 56 7 c81 10 143 40 192 92 l42 46 63 -11 c77 -12 145 -2 201 33 51
31 58 31 110 0z m171 -141 c22 -9 45 -57 45 -97 0 -31 2 -34 25 -29 17 3 25 0
26 -9 3 -38 0 -76 -6 -90 -12 -30 21 -49 83 -48 48 0 53 2 32 10 -14 6 -35 8
-47 6 -13 -2 -31 2 -40 9 -17 12 -17 14 -1 30 26 27 112 24 140 -3 12 -13 18
-28 15 -37 -10 -26 -69 -56 -109 -56 -21 0 -38 -4 -38 -10 0 -5 8 -10 19 -10
10 0 25 -7 32 -16 34 -41 -96 -74 -166 -42 -35 16 -33 47 5 61 38 14 38 20 0
34 -40 15 -53 52 -39 107 9 38 8 49 -10 84 -21 40 -28 92 -14 105 8 9 27 9 48
1z m239 -74 c38 -14 32 -30 -11 -30 -21 -1 -55 -7 -76 -14 -40 -15 -57 -5 -36
21 26 31 78 41 123 23z m52 -71 c18 -20 18 -21 -1 -35 -11 -8 -29 -13 -40 -10
-11 3 -46 6 -78 6 -50 0 -58 3 -55 17 8 44 139 61 174 22z m-1051 -208 c50
-23 163 -104 287 -207 87 -71 109 -84 215 -123 139 -52 172 -72 234 -138 56
-60 70 -85 99 -182 40 -130 20 -219 -77 -342 -86 -110 -180 -164 -303 -175
-62 -5 -73 -4 -62 7 16 17 15 29 -2 29 -7 0 -22 -12 -31 -28 -40 -60 -140
-180 -147 -176 -4 3 -8 13 -8 23 0 21 -53 34 -215 51 -55 6 -131 18 -170 27
-38 8 -82 17 -97 20 -16 3 -28 7 -28 8 0 2 25 40 55 84 40 61 52 87 47 101 -6
17 -18 5 -72 -72 -61 -86 -68 -93 -103 -96 -20 -2 -37 1 -37 5 0 5 14 26 32
48 27 33 27 36 6 16 l-27 -23 -38 18 c-55 27 -86 78 -78 128 8 54 48 124 107
191 66 74 84 83 109 56 20 -21 20 -21 -41 -83 -68 -70 -116 -155 -105 -188 10
-30 50 -53 85 -48 24 4 27 2 19 -9 -7 -7 -9 -13 -7 -13 3 0 20 19 38 43 19 23
27 36 17 28 -15 -11 -17 -11 -17 2 0 8 -14 41 -30 73 l-31 58 53 53 c45 47 57
54 83 50 40 -6 65 8 65 38 0 19 5 25 23 25 12 0 31 3 43 6 16 4 24 -2 39 -35
13 -31 24 -41 41 -41 12 0 30 -3 40 -7 15 -6 16 -4 6 8 -6 8 -27 43 -45 79
-18 36 -72 117 -119 181 -47 63 -93 130 -102 147 -21 41 -42 178 -32 216 10
41 57 83 99 91 32 6 37 11 37 36 0 56 69 75 145 40z m885 -106 c0 -48 -28
-183 -46 -216 -19 -37 -59 -67 -99 -75 -40 -7 -61 -1 -99 29 l-28 23 42 2 c77
5 123 42 145 116 8 27 15 66 15 87 0 55 8 69 41 69 27 0 29 -3 29 -35z m-1094
-496 c-3 -16 -1 -29 4 -29 6 0 10 7 10 15 0 8 4 15 9 15 12 0 71 -74 71 -88 0
-20 -40 -24 -66 -7 -33 22 -39 14 -19 -24 27 -53 2 -65 -64 -31 -45 23 -91 74
-91 101 0 23 13 26 62 14 26 -7 26 -6 21 34 -3 22 -2 52 2 68 l7 28 30 -34
c24 -26 29 -40 24 -62z m1428 32 c25 -13 46 -26 46 -30 0 -4 -13 -17 -29 -28
-27 -21 -30 -21 -72 -6 -75 26 -193 0 -267 -57 -25 -20 -27 -20 -33 -3 -15 37
-8 54 36 86 101 71 221 85 319 38z m94 -76 c11 -13 25 -37 31 -53 11 -25 9
-33 -15 -70 -30 -46 -39 -46 -48 -1 -3 18 -18 48 -33 67 l-26 35 27 24 c34 29
40 29 64 -2z m-139 -10 c43 -22 79 -70 97 -131 21 -73 5 -150 -42 -199 l-33
-35 -215 0 c-119 0 -216 2 -216 5 0 2 18 32 40 66 44 68 60 114 60 174 1 35 6
44 44 72 24 18 61 39 82 47 52 19 148 20 183 1z m186 -175 c22 -11 52 -20 67
-20 15 0 29 -4 32 -8 7 -12 -22 -165 -41 -218 -20 -52 -49 -68 -105 -57 -24 5
-28 10 -26 32 1 14 -2 47 -6 73 -5 26 -5 59 -2 73 l7 26 35 -27 c48 -37 54
-23 6 16 -29 23 -38 37 -35 51 5 19 7 18 39 -6 18 -14 39 -25 46 -25 12 1 -13
25 -55 55 -13 9 -17 20 -12 34 8 25 3 25 50 1z m215 -104 c0 -3 -11 -26 -25
-52 -14 -26 -25 -55 -25 -65 0 -11 -4 -19 -10 -19 -12 0 -12 -2 1 62 15 75 16
78 39 78 11 0 20 -2 20 -4z m-324 -83 c-11 -11 -19 6 -11 24 8 17 8 17 12 0 3
-10 2 -21 -1 -24z m-1663 -3 c3 -14 1 -20 -6 -17 -7 2 -14 14 -15 26 -4 28 13
20 21 -9z m1472 -40 c4 -16 4 -39 0 -50 -6 -19 -14 -20 -212 -20 -183 0 -204
2 -193 15 7 9 15 14 17 11 3 -2 21 13 40 35 l35 39 153 0 153 0 7 -30z m209
14 c10 -27 7 -64 -6 -68 -7 -3 -52 -7 -100 -10 l-88 -5 0 49 0 50 94 0 c76 0
95 -3 100 -16z m-32 -151 c-36 -37 -64 -75 -75 -104 -18 -46 -18 -46 -74 -53
-78 -9 -135 -37 -188 -92 l-46 -47 -63 11 c-78 13 -140 2 -207 -35 l-49 -28
-49 28 c-68 38 -132 49 -208 35 l-62 -11 -43 46 c-42 45 -113 86 -153 88 -11
0 -15 3 -8 5 6 3 51 -2 100 -10 48 -9 95 -16 104 -16 9 0 46 42 84 95 l67 95
47 0 c26 0 71 7 101 16 58 18 259 28 603 32 l178 2 -59 -57z m-1264 -150 c-10
-2 -26 -2 -35 0 -10 3 -2 5 17 5 19 0 27 -2 18 -5z"/>
<path d="M2092 2798 c-15 -15 -16 -89 0 -122 12 -28 45 -43 59 -29 5 5 12 23
15 41 5 26 4 31 -8 27 -17 -7 -48 19 -48 39 0 8 7 19 15 26 13 11 13 15 3 21
-17 12 -22 11 -36 -3z"/>
<path d="M1956 2764 c-12 -31 -5 -90 14 -121 22 -37 32 -40 54 -17 23 23 21
64 -4 64 -29 0 -46 37 -26 59 9 10 13 21 9 24 -12 13 -41 7 -47 -9z"/>
<path d="M1918 2595 c2 -20 -1 -42 -8 -50 -7 -9 -10 -18 -7 -21 3 -3 11 3 18
14 12 20 13 20 50 0 33 -17 43 -18 74 -8 37 12 70 50 63 72 -3 8 -10 3 -18
-12 -19 -35 -40 -49 -76 -50 -33 0 -69 31 -76 64 -6 36 -24 28 -20 -9z"/>
<path d="M2332 2517 c-39 -12 -117 -79 -136 -116 -25 -48 -29 -71 -13 -71 10
0 13 7 11 18 -13 47 95 144 178 161 92 19 194 -24 250 -104 89 -131 30 -306
-122 -360 -36 -13 -39 -12 -54 8 -15 21 -15 20 -2 -9 12 -24 12 -34 3 -45 -7
-7 -3 -6 8 3 11 8 36 21 56 27 51 16 110 70 139 127 33 65 35 170 3 229 -62
116 -198 172 -321 132z"/>
<path d="M2362 2456 c-33 -12 -75 -46 -55 -46 7 0 15 4 18 10 3 5 24 14 46 20
54 15 136 -9 178 -51 19 -18 31 -25 31 -17 0 16 -34 50 -68 67 -38 20 -115 28
-150 17z"/>
<path d="M2248 2343 c7 -3 16 -2 19 1 4 3 -2 6 -13 5 -11 0 -14 -3 -6 -6z"/>
<path d="M2600 2316 c0 -8 5 -18 10 -21 6 -3 10 1 10 9 0 8 -4 18 -10 21 -5 3
-10 -1 -10 -9z"/>
<path d="M2114 2304 c-18 -14 -18 -15 4 -4 12 6 22 13 22 15 0 8 -5 6 -26 -11z"/>
<path d="M2310 2305 c0 -5 5 -17 10 -25 5 -8 10 -10 10 -5 0 6 -5 17 -10 25
-5 8 -10 11 -10 5z"/>
<path d="M2238 2293 c6 -2 18 -2 25 0 6 3 1 5 -13 5 -14 0 -19 -2 -12 -5z"/>
<path d="M2045 2250 c-21 -22 -37 -41 -34 -43 2 -2 21 16 43 40 49 54 43 56
-9 3z"/>
<path d="M2380 2160 c6 -11 13 -20 16 -20 2 0 0 9 -6 20 -6 11 -13 20 -16 20
-2 0 0 -9 6 -20z"/>
<path d="M1741 2153 c-1 -12 -7 -24 -13 -26 -10 -4 -10 -6 0 -6 15 -1 26 23
19 41 -3 7 -6 3 -6 -9z"/>
<path d="M1888 2133 c6 -2 18 -2 25 0 6 3 1 5 -13 5 -14 0 -19 -2 -12 -5z"/>
<path d="M1720 2071 c0 -6 4 -13 10 -16 6 -3 7 1 4 9 -7 18 -14 21 -14 7z"/>
<path d="M1884 2042 l-21 -7 20 -53 20 -53 41 7 c23 3 42 7 44 9 1 1 -5 24
-15 51 -19 51 -39 62 -89 46z"/>
<path d="M2408 1953 c7 -3 16 -2 19 1 4 3 -2 6 -13 5 -11 0 -14 -3 -6 -6z"/>
<path d="M2467 1939 c4 -13 8 -18 11 -10 2 7 -1 18 -6 23 -8 8 -9 4 -5 -13z"/>
<path d="M2200 1895 c-7 -9 -19 -14 -26 -11 -7 3 -16 1 -19 -4 -10 -16 32 -11
48 5 8 8 18 11 22 7 5 -4 5 -1 1 6 -9 15 -11 15 -26 -3z"/>
<path d="M2068 1893 c7 -3 16 -2 19 1 4 3 -2 6 -13 5 -11 0 -14 -3 -6 -6z"/>
<path d="M2408 1883 c7 -3 16 -2 19 1 4 3 -2 6 -13 5 -11 0 -14 -3 -6 -6z"/>
<path d="M2013 1843 c9 -2 25 -2 35 0 9 3 1 5 -18 5 -19 0 -27 -2 -17 -5z"/>
<path d="M2098 1843 c6 -2 18 -2 25 0 6 3 1 5 -13 5 -14 0 -19 -2 -12 -5z"/>
<path d="M1938 1833 c7 -3 16 -2 19 1 4 3 -2 6 -13 5 -11 0 -14 -3 -6 -6z"/>
<path d="M2158 1833 c7 -3 16 -2 19 1 4 3 -2 6 -13 5 -11 0 -14 -3 -6 -6z"/>
<path d="M2041 1811 c-19 -5 -21 -8 -10 -18 28 -23 68 -26 97 -7 15 11 34 22
42 26 19 9 -97 8 -129 -1z"/>
<path d="M2209 1783 c-13 -16 -12 -17 4 -4 9 7 17 15 17 17 0 8 -8 3 -21 -13z"/>
<path d="M3557 3528 c-53 -39 -97 -73 -97 -77 0 -3 7 -15 15 -25 15 -19 15
-19 45 2 16 12 34 22 39 22 5 0 22 -18 38 -40 31 -44 35 -46 53 -25 11 13 8
23 -19 60 l-31 44 22 15 c20 14 24 14 40 -1 10 -9 28 -31 39 -50 18 -28 23
-31 40 -20 10 6 19 14 19 17 -1 3 -25 37 -54 77 l-52 72 -97 -71z"/>
<path d="M1030 3308 c-39 -71 -48 -98 -32 -98 7 1 84 170 76 170 -2 0 -21 -33
-44 -72z"/>
<path d="M1168 3327 c-11 -13 -33 -50 -48 -84 l-28 -61 105 -51 c58 -28 108
-51 112 -51 5 0 23 32 40 71 40 89 39 137 -1 157 -19 9 -33 10 -45 3 -13 -7
-23 -3 -40 15 -28 31 -68 31 -95 1z m65 -50 c2 -7 -2 -29 -10 -49 -14 -34 -17
-36 -39 -26 -29 13 -29 15 -4 56 20 33 44 42 53 19z m94 -33 c3 -8 -2 -32 -12
-53 -13 -30 -21 -37 -36 -34 -30 8 -31 19 -9 63 21 41 46 52 57 24z"/>
<path d="M3798 3339 c-16 -9 -17 -13 -3 -45 l14 -35 -89 -40 c-85 -40 -88 -42
-78 -65 6 -13 14 -24 18 -24 4 0 42 16 84 35 43 19 81 35 85 35 5 0 14 -13 21
-30 13 -31 25 -36 48 -21 10 6 3 30 -32 104 -25 54 -46 97 -48 97 -2 0 -11 -5
-20 -11z"/>
<path d="M3970 3275 c0 -3 7 -22 15 -42 20 -46 19 -67 -2 -85 -10 -8 -80 -36
-156 -63 -84 -29 -136 -52 -133 -59 2 -6 17 -47 32 -91 14 -44 28 -82 30 -84
2 -3 85 17 183 44 l178 49 -28 85 c-36 108 -99 251 -111 251 -4 0 -8 -2 -8 -5z"/>
<path d="M851 2798 c-9 -40 -29 -247 -31 -310 0 -5 85 -8 189 -8 l188 0 7 108
c4 59 8 125 9 146 l2 39 -170 38 c-93 21 -173 39 -177 39 -4 0 -11 -24 -17
-52z"/>
<path d="M3918 2553 l-118 -4 -1 -87 c0 -48 -4 -112 -8 -142 -5 -30 -8 -56 -6
-57 1 -2 75 -17 166 -33 90 -17 171 -33 180 -36 20 -6 27 29 39 201 12 167 13
165 -69 163 -36 -1 -119 -4 -183 -5z"/>
<path d="M1060 2145 c-91 -23 -170 -43 -177 -46 -13 -4 44 -189 91 -292 l26
-58 30 16 c16 9 30 17 30 19 0 2 -11 29 -25 61 -19 42 -23 61 -15 70 6 7 68
34 138 61 l128 47 -24 76 c-13 42 -27 79 -31 82 -3 3 -80 -13 -171 -36z"/>
<path d="M3705 1937 c-14 -28 -25 -57 -25 -63 0 -6 35 -27 78 -46 l77 -36 29
60 c22 46 26 62 17 71 -14 14 -38 -12 -48 -50 -6 -25 -11 -27 -31 -14 -12 7
-11 14 2 39 20 38 20 38 1 46 -11 4 -21 -5 -32 -29 -9 -19 -21 -35 -25 -35
-17 0 -19 29 -4 59 20 37 20 37 0 45 -11 4 -22 -8 -39 -47z"/>
<path d="M1173 1945 c-40 -18 -73 -40 -73 -47 1 -7 13 -36 28 -65 21 -40 30
-50 42 -43 12 8 12 14 -3 45 -21 44 -21 51 -1 59 11 4 19 -4 30 -29 8 -19 21
-35 29 -35 19 0 19 11 1 55 -13 31 -13 34 2 37 12 2 23 -9 34 -34 15 -34 48
-53 48 -28 0 17 -49 120 -57 120 -4 -1 -41 -16 -80 -35z"/>
<path d="M3926 1784 c-17 -36 -54 -104 -83 -151 -29 -46 -53 -85 -53 -87 0 -1
13 -12 29 -24 l29 -21 50 77 c56 86 117 197 126 227 5 17 0 23 -27 33 -18 7
-35 12 -38 12 -2 0 -17 -30 -33 -66z"/>
<path d="M1335 1730 l-17 -52 -54 6 c-30 3 -54 2 -54 -2 0 -20 40 -44 65 -40
27 6 31 -5 16 -44 -6 -17 -5 -29 5 -43 13 -17 14 -16 27 16 8 19 17 42 20 52
5 13 18 17 57 17 27 0 50 4 50 8 0 17 -26 32 -56 32 l-32 0 11 35 c9 29 8 39
-5 51 -14 15 -17 11 -33 -36z"/>
<path d="M3576 1706 c-20 -23 -36 -47 -36 -52 1 -5 33 -31 72 -58 55 -37 72
-45 79 -35 12 19 11 25 -5 39 -23 18 -8 40 28 40 30 0 56 15 56 32 0 4 -13 8
-30 8 -23 0 -31 5 -36 25 -7 29 -31 45 -68 45 -17 0 -36 -13 -60 -44z m82 -21
c1 -11 -3 -28 -10 -37 -12 -16 -14 -16 -35 1 -20 17 -21 20 -6 40 18 26 47 24
51 -4z"/>
<path d="M1460 1499 c-41 -17 -77 -32 -79 -35 -12 -11 24 -33 46 -28 35 9 74
-29 67 -65 -6 -30 21 -66 31 -40 2 8 18 51 34 95 42 115 29 125 -99 73z m69
-39 c-9 -25 -14 -28 -30 -20 -10 6 -19 13 -19 15 0 3 49 33 57 35 1 0 -3 -13
-8 -30z"/>
<path d="M3411 1516 c-14 -16 -10 -32 31 -144 17 -45 22 -51 35 -41 8 7 12 21
9 34 -8 31 36 70 77 70 53 0 37 24 -38 56 -97 41 -101 41 -114 25z m74 -75
c-14 -14 -17 -14 -25 -1 -19 29 -12 41 15 28 23 -11 24 -13 10 -27z"/>
<path d="M1230 1442 l-22 -18 126 -122 c70 -67 133 -122 141 -122 8 0 19 9 25
20 9 17 6 24 -22 47 -18 14 -74 68 -124 119 -51 52 -94 94 -97 94 -3 0 -15 -8
-27 -18z"/>
<path d="M1665 1332 c-48 -81 -50 -88 -30 -96 11 -4 22 5 38 32 l22 37 3 -47
c4 -55 13 -59 66 -27 43 25 44 20 11 -29 -23 -34 -24 -38 -8 -49 15 -11 21 -6
54 46 61 97 62 99 39 106 -13 4 -36 -3 -65 -19 -24 -14 -46 -26 -49 -26 -3 0
-6 26 -6 58 0 51 -11 82 -29 82 -4 0 -24 -31 -46 -68z"/>
<path d="M3263 1389 c-7 -7 -8 -22 -3 -42 4 -18 11 -45 15 -61 l6 -29 -47 42
c-50 44 -52 45 -72 33 -10 -7 -10 -20 -1 -61 6 -29 9 -55 6 -57 -3 -3 -23 11
-45 30 -25 23 -45 34 -56 30 -9 -3 -16 -10 -16 -14 0 -5 29 -34 65 -65 90 -80
116 -68 92 44 l-7 33 44 -36 c49 -40 58 -42 75 -22 9 10 7 30 -4 82 -26 113
-28 117 -52 93z"/>
<path d="M3450 1203 c-47 -36 -111 -79 -142 -96 -61 -34 -66 -42 -44 -72 14
-19 15 -19 62 7 59 33 254 169 254 178 0 4 -10 16 -22 27 l-23 21 -85 -65z"/>
<path d="M2905 1216 c-49 -15 -71 -27 -73 -40 -3 -14 2 -17 29 -14 31 3 33 1
52 -57 24 -72 21 -68 45 -61 20 7 20 7 -1 72 -22 67 -21 74 17 87 4 1 7 10 5
18 -4 14 -13 13 -74 -5z"/>
<path d="M2105 1174 c-24 -25 -14 -56 28 -83 59 -39 46 -68 -17 -36 -35 19
-42 19 -50 0 -14 -38 107 -61 138 -26 24 26 13 55 -29 80 -58 34 -39 50 34 30
27 -7 23 27 -4 39 -37 17 -81 15 -100 -4z"/>
<path d="M2670 1163 c-19 -3 -39 -8 -43 -12 -7 -7 7 -134 18 -168 2 -6 13 -9
24 -6 16 4 20 12 18 37 -2 29 0 31 36 34 30 3 37 7 37 24 0 18 -4 20 -45 14
-41 -7 -45 -5 -45 13 0 20 10 25 65 33 11 2 21 11 23 21 4 18 -8 19 -88 10z"/>
<path d="M2357 1130 c-34 -27 -43 -70 -23 -109 20 -38 44 -51 91 -51 48 0 95
44 95 90 0 47 -47 90 -98 90 -24 0 -49 -8 -65 -20z m91 -26 c24 -17 30 -62 10
-82 -7 -7 -24 -12 -38 -12 -33 0 -50 17 -50 51 0 24 30 59 50 59 3 0 16 -7 28
-16z"/>
<path d="M1821 998 c-7 -19 -4 -25 15 -36 40 -21 256 -90 294 -94 31 -3 35 0
35 21 0 21 -9 26 -95 51 -52 14 -125 39 -161 53 -79 33 -78 32 -88 5z"/>
<path d="M2810 914 c-30 -7 -101 -19 -157 -25 -98 -11 -103 -13 -103 -35 0
-23 4 -24 59 -24 55 0 289 35 299 45 2 2 2 16 -2 30 -7 28 -15 29 -96 9z"/>
</g>
</svg>
